<svg width="210" height="25" viewBox="0 0 210 25" fill="none" xmlns="http://www.w3.org/2000/svg">
<path d="M12.6671 8.78059H10.4018C10.3372 8.40909 10.218 8.07999 10.0444 7.79329C9.87077 7.50255 9.65473 7.25623 9.3963 7.05433C9.13786 6.85243 8.84309 6.70101 8.51197 6.60005C8.18489 6.49507 7.83156 6.44257 7.45199 6.44257C6.77764 6.44257 6.18001 6.61217 5.6591 6.95136C5.1382 7.28652 4.73036 7.77916 4.43558 8.42928C4.1408 9.07537 3.99341 9.8648 3.99341 10.7976C3.99341 11.7465 4.1408 12.5461 4.43558 13.1962C4.73439 13.8423 5.14223 14.3309 5.6591 14.662C6.18001 14.9891 6.77562 15.1526 7.44593 15.1526C7.81743 15.1526 8.1647 15.1041 8.48774 15.0072C8.81482 14.9063 9.10758 14.7589 9.36601 14.5651C9.62849 14.3712 9.84856 14.133 10.0262 13.8503C10.2079 13.5677 10.3331 13.2446 10.4018 12.8812L12.6671 12.8933C12.5823 13.4829 12.3986 14.0361 12.1159 14.553C11.8373 15.0698 11.4718 15.5261 11.0196 15.9218C10.5673 16.3135 10.0383 16.6204 9.43264 16.8425C8.82694 17.0606 8.1546 17.1696 7.41565 17.1696C6.32538 17.1696 5.35221 16.9172 4.49615 16.4125C3.64009 15.9077 2.96574 15.1788 2.4731 14.2259C1.98046 13.2729 1.73414 12.1301 1.73414 10.7976C1.73414 9.461 1.98248 8.31824 2.47915 7.3693C2.97583 6.41632 3.6522 5.68746 4.50826 5.18271C5.36433 4.67795 6.33345 4.42558 7.41565 4.42558C8.10615 4.42558 8.74819 4.52249 9.34179 4.71631C9.93538 4.91014 10.4644 5.19482 10.9287 5.57036C11.3931 5.94186 11.7747 6.39815 12.0735 6.93925C12.3764 7.47631 12.5742 8.09009 12.6671 8.78059ZM18.6863 17.1817C17.7777 17.1817 16.9903 16.9818 16.324 16.5821C15.6578 16.1823 15.1409 15.623 14.7734 14.9043C14.41 14.1855 14.2283 13.3456 14.2283 12.3845C14.2283 11.4235 14.41 10.5816 14.7734 9.85874C15.1409 9.13594 15.6578 8.57465 16.324 8.17489C16.9903 7.77512 17.7777 7.57524 18.6863 7.57524C19.5948 7.57524 20.3823 7.77512 21.0485 8.17489C21.7148 8.57465 22.2297 9.13594 22.5931 9.85874C22.9605 10.5816 23.1443 11.4235 23.1443 12.3845C23.1443 13.3456 22.9605 14.1855 22.5931 14.9043C22.2297 15.623 21.7148 16.1823 21.0485 16.5821C20.3823 16.9818 19.5948 17.1817 18.6863 17.1817ZM18.6984 15.4252C19.191 15.4252 19.6029 15.2899 19.934 15.0193C20.2652 14.7448 20.5115 14.3773 20.673 13.917C20.8386 13.4566 20.9213 12.9438 20.9213 12.3785C20.9213 11.8091 20.8386 11.2943 20.673 10.8339C20.5115 10.3696 20.2652 10.0001 19.934 9.72549C19.6029 9.4509 19.191 9.31361 18.6984 9.31361C18.1937 9.31361 17.7737 9.4509 17.4385 9.72549C17.1074 10.0001 16.8591 10.3696 16.6935 10.8339C16.532 11.2943 16.4512 11.8091 16.4512 12.3785C16.4512 12.9438 16.532 13.4566 16.6935 13.917C16.8591 14.3773 17.1074 14.7448 17.4385 15.0193C17.7737 15.2899 18.1937 15.4252 18.6984 15.4252ZM27.198 11.5487V17H25.0053V7.69638H27.101V9.27727H27.2101C27.4241 8.75636 27.7653 8.34246 28.2337 8.03557C28.7062 7.72868 29.2897 7.57524 29.9842 7.57524C30.6262 7.57524 31.1855 7.71253 31.662 7.98712C32.1425 8.2617 32.514 8.65945 32.7765 9.18036C33.043 9.70126 33.1742 10.3332 33.1702 11.0762V17H30.9775V11.4154C30.9775 10.7935 30.816 10.307 30.493 9.95566C30.174 9.60435 29.7318 9.42869 29.1665 9.42869C28.7829 9.42869 28.4417 9.51349 28.1429 9.68309C27.8481 9.84865 27.6159 10.0889 27.4463 10.4039C27.2807 10.7188 27.198 11.1004 27.198 11.5487ZM40.0449 7.69638V9.39235H34.6966V7.69638H40.0449ZM36.017 5.46739H38.2097V14.2016C38.2097 14.4964 38.2541 14.7226 38.3429 14.88C38.4358 15.0335 38.5569 15.1385 38.7063 15.195C38.8557 15.2515 39.0213 15.2798 39.203 15.2798C39.3403 15.2798 39.4655 15.2697 39.5786 15.2495C39.6957 15.2293 39.7845 15.2112 39.8451 15.195L40.2145 16.9091C40.0974 16.9495 39.9299 16.9939 39.7118 17.0424C39.4978 17.0909 39.2353 17.1191 38.9244 17.1272C38.3752 17.1434 37.8806 17.0606 37.4404 16.8789C37.0003 16.6931 36.651 16.4064 36.3925 16.0188C36.1381 15.6311 36.013 15.1465 36.017 14.5651V5.46739ZM41.8787 17V7.69638H44.0714V17H41.8787ZM42.9811 6.37594C42.6338 6.37594 42.335 6.26086 42.0847 6.03069C41.8343 5.79649 41.7091 5.51584 41.7091 5.18876C41.7091 4.85764 41.8343 4.577 42.0847 4.34683C42.335 4.11263 42.6338 3.99553 42.9811 3.99553C43.3324 3.99553 43.6312 4.11263 43.8775 4.34683C44.1279 4.577 44.2531 4.85764 44.2531 5.18876C44.2531 5.51584 44.1279 5.79649 43.8775 6.03069C43.6312 6.26086 43.3324 6.37594 42.9811 6.37594ZM48.5188 11.5487V17H46.3261V7.69638H48.4218V9.27727H48.5309C48.7449 8.75636 49.0861 8.34246 49.5545 8.03557C50.027 7.72868 50.6104 7.57524 51.305 7.57524C51.947 7.57524 52.5063 7.71253 52.9828 7.98712C53.4633 8.2617 53.8348 8.65945 54.0973 9.18036C54.3638 9.70126 54.495 10.3332 54.491 11.0762V17H52.2983V11.4154C52.2983 10.7935 52.1368 10.307 51.8138 9.95566C51.4948 9.60435 51.0526 9.42869 50.4873 9.42869C50.1037 9.42869 49.7625 9.51349 49.4636 9.68309C49.1689 9.84865 48.9367 10.0889 48.7671 10.4039C48.6015 10.7188 48.5188 11.1004 48.5188 11.5487ZM62.6498 13.0871V7.69638H64.8425V17H62.7165V15.3464H62.6195C62.4096 15.8673 62.0643 16.2933 61.5838 16.6245C61.1073 16.9556 60.5198 17.1211 59.8212 17.1211C59.2115 17.1211 58.6724 16.9859 58.204 16.7153C57.7396 16.4407 57.3762 16.043 57.1137 15.5221C56.8512 14.9971 56.72 14.3632 56.72 13.6202V7.69638H58.9126V13.281C58.9126 13.8705 59.0742 14.3389 59.3972 14.6862C59.7202 15.0335 60.1442 15.2071 60.6692 15.2071C60.9922 15.2071 61.3052 15.1284 61.608 14.9709C61.9109 14.8134 62.1592 14.5792 62.353 14.2683C62.5509 13.9533 62.6498 13.5596 62.6498 13.0871ZM71.216 17.1817C70.2832 17.1817 69.4776 16.9879 68.7993 16.6002C68.1249 16.2085 67.606 15.6553 67.2426 14.9406C66.8792 14.2218 66.6975 13.3759 66.6975 12.4027C66.6975 11.4457 66.8792 10.6058 67.2426 9.88297C67.6101 9.15613 68.1229 8.5908 68.7811 8.187C69.4393 7.77916 70.2126 7.57524 71.1009 7.57524C71.6743 7.57524 72.2154 7.66811 72.7242 7.85386C73.237 8.03557 73.6893 8.31824 74.081 8.70185C74.4767 9.08546 74.7876 9.57406 75.0138 10.1677C75.2399 10.7572 75.353 11.4598 75.353 12.2755V12.9478H67.7272V11.4699H73.2512C73.2471 11.05 73.1563 10.6764 72.9786 10.3494C72.8009 10.0182 72.5526 9.75779 72.2336 9.56801C71.9186 9.37822 71.5512 9.28333 71.1312 9.28333C70.683 9.28333 70.2893 9.39235 69.9501 9.61041C69.6109 9.82442 69.3464 10.1071 69.1566 10.4584C68.9709 10.8057 68.876 11.1873 68.8719 11.6032V12.8933C68.8719 13.4344 68.9709 13.8988 69.1687 14.2864C69.3666 14.6701 69.6432 14.9648 69.9985 15.1708C70.3539 15.3727 70.7698 15.4736 71.2463 15.4736C71.5653 15.4736 71.854 15.4292 72.1125 15.3404C72.3709 15.2475 72.595 15.1122 72.7848 14.9345C72.9746 14.7569 73.1179 14.5368 73.2148 14.2743L75.2621 14.5045C75.1329 15.0456 74.8866 15.518 74.5232 15.9218C74.1638 16.3216 73.7034 16.6325 73.1422 16.8546C72.5809 17.0727 71.9388 17.1817 71.216 17.1817ZM83.3589 17L80.7301 7.69638H82.9652L84.6006 14.238H84.6854L86.3571 7.69638H88.5679L90.2397 14.2016H90.3305L91.9417 7.69638H94.1828L91.548 17H89.2645L87.5201 10.7128H87.3929L85.6484 17H83.3589ZM95.7137 17V7.69638H97.9064V17H95.7137ZM96.8161 6.37594C96.4688 6.37594 96.17 6.26086 95.9197 6.03069C95.6693 5.79649 95.5441 5.51584 95.5441 5.18876C95.5441 4.85764 95.6693 4.577 95.9197 4.34683C96.17 4.11263 96.4688 3.99553 96.8161 3.99553C97.1674 3.99553 97.4662 4.11263 97.7125 4.34683C97.9629 4.577 98.0881 4.85764 98.0881 5.18876C98.0881 5.51584 97.9629 5.79649 97.7125 6.03069C97.4662 6.26086 97.1674 6.37594 96.8161 6.37594ZM104.807 7.69638V9.39235H99.4585V7.69638H104.807ZM100.779 5.46739H102.972V14.2016C102.972 14.4964 103.016 14.7226 103.105 14.88C103.198 15.0335 103.319 15.1385 103.468 15.195C103.618 15.2515 103.783 15.2798 103.965 15.2798C104.102 15.2798 104.227 15.2697 104.34 15.2495C104.458 15.2293 104.546 15.2112 104.607 15.195L104.976 16.9091C104.859 16.9495 104.692 16.9939 104.474 17.0424C104.26 17.0909 103.997 17.1191 103.686 17.1272C103.137 17.1434 102.642 17.0606 102.202 16.8789C101.762 16.6931 101.413 16.4064 101.154 16.0188C100.9 15.6311 100.775 15.1465 100.779 14.5651V5.46739ZM109.033 11.5487V17H106.841V4.59517H108.985V9.27727H109.094C109.312 8.75232 109.649 8.33843 110.105 8.03557C110.566 7.72868 111.151 7.57524 111.862 7.57524C112.508 7.57524 113.071 7.71051 113.552 7.98106C114.032 8.25161 114.404 8.64734 114.666 9.16824C114.933 9.68915 115.066 10.3251 115.066 11.0762V17H112.873V11.4154C112.873 10.7895 112.712 10.3029 112.389 9.95566C112.07 9.60435 111.622 9.42869 111.044 9.42869C110.656 9.42869 110.309 9.51349 110.002 9.68309C109.699 9.84865 109.461 10.0889 109.288 10.4039C109.118 10.7188 109.033 11.1004 109.033 11.5487Z" fill="white"/>
<g clip-path="url(#clip0_185_1433)">
<path d="M152.028 4.63931C149.007 4.63931 147.5 5.67918 146.29 6.51888L146.255 6.54287C146.123 6.63134 146.084 6.80903 146.165 6.94698L147.415 9.13094C147.477 9.26214 147.625 9.32512 147.76 9.27564C147.803 9.26364 147.843 9.24265 147.878 9.21341L147.972 9.13469C148.596 8.60388 149.538 7.80392 151.951 7.60749C153.295 7.49803 154.457 7.8639 155.308 8.66461C156.251 9.54629 156.812 10.9708 156.812 12.4732C156.812 15.2352 155.208 16.9716 152.631 17.0099C150.507 16.9986 149.078 15.874 149.078 14.2111C149.078 13.3309 149.419 12.6839 150.186 12.1119C150.314 12.0369 150.358 11.8705 150.284 11.74C150.281 11.7348 150.279 11.7295 150.275 11.725L149.199 9.6625C149.145 9.54254 149.017 9.47657 148.89 9.50131C148.848 9.50581 148.808 9.5193 148.771 9.54029C147.566 10.2653 146.146 11.6643 146.225 14.2156C146.323 17.4612 148.98 19.9383 152.437 20.0395H152.83C156.938 19.9046 159.902 16.8112 159.902 12.6239C159.902 8.74933 157.143 4.63781 152.031 4.63781L152.028 4.63931ZM168.464 15.7353C166.602 15.7353 165.121 14.1609 165.121 12.2401C165.121 10.3193 166.601 8.76282 168.464 8.76282C170.328 8.76282 171.821 10.3208 171.821 12.2423C171.821 14.1639 170.328 15.7353 168.464 15.7353ZM164.907 7.2926V5.49325C164.916 5.42952 164.873 5.37029 164.811 5.3613C164.8 5.3598 164.788 5.3598 164.776 5.3613H161.75C161.688 5.35155 161.63 5.39578 161.62 5.46026C161.619 5.47151 161.619 5.48275 161.62 5.494V23.1127C161.616 23.1674 161.65 23.2184 161.701 23.2356C161.717 23.2424 161.734 23.2454 161.751 23.2454H164.992C165.055 23.2544 165.113 23.2101 165.123 23.1457C165.124 23.1344 165.124 23.1239 165.123 23.1127V17.3277H165.171C165.686 18.1247 167.093 19.0799 168.93 19.0799C172.387 19.0799 175.265 16.1694 175.265 12.2348C175.265 8.30024 172.407 5.40178 168.766 5.40178C167.148 5.40178 165.785 6.31345 164.909 7.41331V7.29185H164.907V7.2926ZM127.866 11.0945C127.866 11.0945 126.299 10.7196 125.72 10.5697C125.142 10.4197 124.134 10.0876 124.134 9.32362C124.134 8.55965 124.943 8.30099 125.774 8.30099C126.605 8.30099 127.519 8.50267 127.591 9.43383C127.591 9.49906 127.642 9.55229 127.707 9.55229C127.712 9.55229 127.717 9.55229 127.723 9.55154L130.76 9.54029C130.823 9.54929 130.882 9.50431 130.891 9.43983C130.894 9.42634 130.893 9.41284 130.89 9.39935C130.702 6.42217 128.13 5.35605 125.756 5.35605C122.94 5.35605 120.887 7.23637 120.887 9.31987C120.887 10.8343 121.311 12.2573 124.631 13.2462C125.21 13.4201 126.004 13.6421 126.696 13.834C127.527 14.0687 127.969 14.421 127.969 14.9863C127.969 15.6356 127.03 16.0884 126.13 16.0884C124.806 16.0884 123.871 15.5899 123.795 14.6984C123.795 14.6332 123.743 14.5807 123.679 14.5807C123.675 14.5807 123.67 14.5807 123.665 14.5815L120.633 14.5957C120.571 14.5852 120.512 14.6287 120.502 14.6924C120.499 14.7067 120.499 14.7209 120.502 14.7344C120.642 17.5437 123.314 19.0581 125.806 19.0581C129.511 19.0581 131.197 16.9296 131.197 14.9526C131.197 14.0297 130.991 11.9042 127.867 11.0937H127.866V11.0945ZM132.826 1.01436V18.9367C132.816 19.0011 132.86 19.0611 132.922 19.0709C132.934 19.0724 132.946 19.0724 132.958 19.0709H136.198C136.262 19.0799 136.321 19.0356 136.33 18.9704C136.332 18.9592 136.332 18.9479 136.33 18.9367V11.2947C136.33 9.8147 137.305 8.75908 138.868 8.75908C140.581 8.75908 141.008 10.1836 141.008 11.6388V18.9367C140.998 19.0011 141.042 19.0619 141.105 19.0709C141.117 19.0724 141.129 19.0724 141.141 19.0709H144.368C144.431 19.0799 144.49 19.0356 144.499 18.9704C144.501 18.9592 144.501 18.9479 144.499 18.9367V11.2024C144.499 10.9363 144.488 10.6776 144.468 10.4227C144.412 9.59577 144.209 8.78532 143.867 8.03259C143.119 6.43941 141.698 5.40853 139.561 5.40853C138.232 5.43177 136.989 6.07954 136.193 7.16365L136.113 7.26111V1.01361C136.123 0.949132 136.079 0.888404 136.015 0.878658C136.004 0.877158 135.992 0.877158 135.981 0.878658H132.958C132.893 0.870411 132.834 0.917644 132.826 0.98437C132.824 0.994116 132.824 1.00386 132.826 1.01361V1.01436Z" fill="white"/>
</g>
<g clip-path="url(#clip1_185_1433)">
<path d="M183.826 10.5105C183.741 11.2429 183.191 11.2429 182.683 11.2429H182.387L182.598 9.90754C182.598 9.82144 182.683 9.77824 182.768 9.77824H182.895C183.233 9.77824 183.572 9.77824 183.741 9.99364C183.868 10.0797 183.868 10.2522 183.826 10.5105Z" fill="white"/>
<path d="M188.311 11.5876C188.184 11.4153 187.931 11.329 187.677 11.329C187.126 11.329 186.703 11.6737 186.619 12.2338C186.576 12.5353 186.661 12.7507 186.788 12.9229C186.915 13.0954 187.126 13.1815 187.423 13.1815C187.973 13.1815 188.396 12.8368 188.481 12.2767C188.523 12.0184 188.439 11.803 188.311 11.5876ZM188.311 11.5876C188.184 11.4153 187.931 11.329 187.677 11.329C187.126 11.329 186.703 11.6737 186.619 12.2338C186.576 12.5353 186.661 12.7507 186.788 12.9229C186.915 13.0954 187.126 13.1815 187.423 13.1815C187.973 13.1815 188.396 12.8368 188.481 12.2767C188.523 12.0184 188.439 11.803 188.311 11.5876ZM188.311 11.5876C188.184 11.4153 187.931 11.329 187.677 11.329C187.126 11.329 186.703 11.6737 186.619 12.2338C186.576 12.5353 186.661 12.7507 186.788 12.9229C186.915 13.0954 187.126 13.1815 187.423 13.1815C187.973 13.1815 188.396 12.8368 188.481 12.2767C188.523 12.0184 188.439 11.803 188.311 11.5876ZM197.707 9.99365C197.537 9.77825 197.157 9.77825 196.733 9.77825C196.649 9.77825 196.564 9.82144 196.564 9.90755L196.353 11.2429H196.649C197.157 11.2429 197.707 11.2429 197.791 10.5106C197.834 10.2522 197.834 10.0798 197.707 9.99365ZM202.277 11.5876C202.15 11.4153 201.897 11.329 201.642 11.329C201.092 11.329 200.669 11.6737 200.584 12.2338C200.542 12.5353 200.627 12.7507 200.754 12.9229C200.881 13.0954 201.092 13.1815 201.389 13.1815C201.939 13.1815 202.362 12.8368 202.447 12.2767C202.489 12.0184 202.404 11.803 202.277 11.5876ZM202.277 11.5876C202.15 11.4153 201.897 11.329 201.642 11.329C201.092 11.329 200.669 11.6737 200.584 12.2338C200.542 12.5353 200.627 12.7507 200.754 12.9229C200.881 13.0954 201.092 13.1815 201.389 13.1815C201.939 13.1815 202.362 12.8368 202.447 12.2767C202.489 12.0184 202.404 11.803 202.277 11.5876ZM197.707 9.99365C197.537 9.77825 197.157 9.77825 196.733 9.77825C196.649 9.77825 196.564 9.82144 196.564 9.90755L196.353 11.2429H196.649C197.157 11.2429 197.707 11.2429 197.791 10.5106C197.834 10.2522 197.834 10.0798 197.707 9.99365ZM188.311 11.5876C188.184 11.4153 187.931 11.329 187.677 11.329C187.126 11.329 186.703 11.6737 186.619 12.2338C186.576 12.5353 186.661 12.7507 186.788 12.9229C186.915 13.0954 187.126 13.1815 187.423 13.1815C187.973 13.1815 188.396 12.8368 188.481 12.2767C188.523 12.0184 188.439 11.803 188.311 11.5876ZM207.313 -1.52588e-05H179.382C178.197 -1.52588e-05 177.266 0.947689 177.266 2.11079V21.9691C177.266 23.1751 178.197 24.1228 179.382 24.1228H207.313C208.456 24.1228 209.429 23.1751 209.429 22.012V2.11079C209.429 0.947689 208.498 -1.52588e-05 207.313 -1.52588e-05ZM185.264 10.5106C185.053 11.7598 184.333 12.406 183.064 12.406H182.471C182.344 12.406 182.217 12.4921 182.217 12.6214L182.006 13.9999C182.006 14.1292 181.879 14.2153 181.752 14.2153H180.821C180.694 14.2153 180.651 14.1292 180.651 13.9999L181.413 8.83054C181.413 8.70153 181.54 8.61514 181.667 8.61514H183.614C184.249 8.61514 184.756 8.78764 185.01 9.21844C185.264 9.51994 185.349 9.95074 185.264 10.5106ZM189.92 10.5537L189.412 13.8277C189.412 13.9567 189.285 14.0428 189.158 14.0428H188.311C188.184 14.0428 188.142 13.9567 188.142 13.8706L188.184 13.6123C188.184 13.6123 187.719 14.1721 186.873 14.1721C186.407 14.1721 185.984 14.0428 185.687 13.6984C185.391 13.3105 185.264 12.7936 185.349 12.2338C185.518 11.1138 186.407 10.2952 187.465 10.2952C188.354 10.2952 188.565 10.683 188.65 10.8121L188.692 10.5537C188.692 10.4676 188.777 10.4244 188.861 10.4244H189.793C189.877 10.4244 189.962 10.5106 189.92 10.5537ZM191.57 15.5077H190.597C190.47 15.5077 190.385 15.3784 190.47 15.2491L191.486 13.7845L190.427 10.5537C190.385 10.4676 190.47 10.3383 190.597 10.3383H191.528C191.655 10.3383 191.739 10.4244 191.782 10.5537L192.332 12.4921L193.686 10.4676C193.728 10.3815 193.813 10.3383 193.898 10.3383H194.871C194.998 10.3383 195.083 10.5106 194.998 10.5967L191.782 15.3784C191.739 15.4645 191.655 15.5077 191.57 15.5077ZM199.188 10.4676C198.976 11.7169 198.257 12.3631 196.987 12.3631H196.395C196.268 12.3631 196.141 12.4492 196.141 12.5782L195.929 14.0428C195.929 14.1292 195.845 14.2153 195.76 14.2153H194.787C194.66 14.2153 194.617 14.086 194.617 13.9999L195.379 8.83054C195.379 8.70153 195.506 8.61514 195.633 8.61514H197.58C198.214 8.61514 198.722 8.78764 198.934 9.17524C199.188 9.47675 199.272 9.90755 199.188 10.4676ZM203.885 10.5537L203.378 13.8277C203.378 13.9567 203.251 14.0428 203.124 14.0428H202.277C202.15 14.0428 202.108 13.9567 202.108 13.8706L202.15 13.6123C202.15 13.6123 201.685 14.1721 200.838 14.1721C200.373 14.1721 199.95 14.0428 199.653 13.6984C199.357 13.3105 199.23 12.7936 199.315 12.2338C199.484 11.1138 200.373 10.2952 201.431 10.2952C202.32 10.2952 202.531 10.683 202.616 10.8121L202.658 10.5537C202.658 10.4676 202.743 10.4244 202.828 10.4244H203.759C203.843 10.4244 203.928 10.5106 203.885 10.5537ZM205.24 13.9999C205.198 14.1292 205.071 14.2153 204.944 14.2153H204.097C203.97 14.2153 203.928 14.086 203.928 13.9999L204.774 8.74444C204.774 8.65834 204.859 8.61514 204.944 8.61514H205.875C206.002 8.61514 206.044 8.74444 206.044 8.83054L205.24 13.9999ZM201.642 11.329C201.092 11.329 200.669 11.6737 200.584 12.2338C200.542 12.5353 200.627 12.7507 200.754 12.9229C200.881 13.0954 201.092 13.1815 201.389 13.1815C201.939 13.1815 202.362 12.8368 202.447 12.2767C202.489 12.0184 202.404 11.803 202.277 11.5876C202.15 11.4153 201.897 11.329 201.642 11.329ZM197.707 9.99365C197.537 9.77825 197.157 9.77825 196.733 9.77825C196.649 9.77825 196.564 9.82144 196.564 9.90755L196.353 11.2429H196.649C197.157 11.2429 197.707 11.2429 197.791 10.5106C197.834 10.2522 197.834 10.0798 197.707 9.99365ZM187.677 11.329C187.126 11.329 186.703 11.6737 186.619 12.2338C186.576 12.5353 186.661 12.7507 186.788 12.9229C186.915 13.0954 187.126 13.1815 187.423 13.1815C187.973 13.1815 188.396 12.8368 188.481 12.2767C188.523 12.0184 188.439 11.803 188.311 11.5876C188.184 11.4153 187.931 11.329 187.677 11.329ZM188.311 11.5876C188.184 11.4153 187.931 11.329 187.677 11.329C187.126 11.329 186.703 11.6737 186.619 12.2338C186.576 12.5353 186.661 12.7507 186.788 12.9229C186.915 13.0954 187.126 13.1815 187.423 13.1815C187.973 13.1815 188.396 12.8368 188.481 12.2767C188.523 12.0184 188.439 11.803 188.311 11.5876ZM197.707 9.99365C197.537 9.77825 197.157 9.77825 196.733 9.77825C196.649 9.77825 196.564 9.82144 196.564 9.90755L196.353 11.2429H196.649C197.157 11.2429 197.707 11.2429 197.791 10.5106C197.834 10.2522 197.834 10.0798 197.707 9.99365ZM197.707 9.99365C197.537 9.77825 197.157 9.77825 196.733 9.77825C196.649 9.77825 196.564 9.82144 196.564 9.90755L196.353 11.2429H196.649C197.157 11.2429 197.707 11.2429 197.791 10.5106C197.834 10.2522 197.834 10.0798 197.707 9.99365ZM188.311 11.5876C188.184 11.4153 187.931 11.329 187.677 11.329C187.126 11.329 186.703 11.6737 186.619 12.2338C186.576 12.5353 186.661 12.7507 186.788 12.9229C186.915 13.0954 187.126 13.1815 187.423 13.1815C187.973 13.1815 188.396 12.8368 188.481 12.2767C188.523 12.0184 188.439 11.803 188.311 11.5876ZM188.311 11.5876C188.184 11.4153 187.931 11.329 187.677 11.329C187.126 11.329 186.703 11.6737 186.619 12.2338C186.576 12.5353 186.661 12.7507 186.788 12.9229C186.915 13.0954 187.126 13.1815 187.423 13.1815C187.973 13.1815 188.396 12.8368 188.481 12.2767C188.523 12.0184 188.439 11.803 188.311 11.5876ZM188.311 11.5876C188.184 11.4153 187.931 11.329 187.677 11.329C187.126 11.329 186.703 11.6737 186.619 12.2338C186.576 12.5353 186.661 12.7507 186.788 12.9229C186.915 13.0954 187.126 13.1815 187.423 13.1815C187.973 13.1815 188.396 12.8368 188.481 12.2767C188.523 12.0184 188.439 11.803 188.311 11.5876Z" fill="white"/>
</g>
<defs>
<clipPath id="clip0_185_1433">
<rect width="54.7654" height="22.369" fill="white" transform="translate(120.5 0.876938)"/>
</clipPath>
<clipPath id="clip1_185_1433">
<rect width="32.1638" height="24.1228" fill="white" transform="translate(177.266)"/>
</clipPath>
</defs>
</svg>
