<svg width="123" height="123" viewBox="0 0 123 123" fill="none" xmlns="http://www.w3.org/2000/svg">
<path fill-rule="evenodd" clip-rule="evenodd" d="M61.5 11.625C33.9548 11.625 11.625 33.9548 11.625 61.5C11.625 89.0452 33.9548 111.375 61.5 111.375C89.0452 111.375 111.375 89.0452 111.375 61.5C111.375 33.9548 89.0452 11.625 61.5 11.625ZM0.541666 61.5C0.541666 27.8336 27.8336 0.541664 61.5 0.541664C95.1664 0.541664 122.458 27.8336 122.458 61.5C122.458 95.1664 95.1664 122.458 61.5 122.458C27.8336 122.458 0.541666 95.1664 0.541666 61.5Z" fill="white"/>
<path fill-rule="evenodd" clip-rule="evenodd" d="M47.8018 34.4474C49.6037 33.483 51.7901 33.5887 53.4906 34.7224L86.7406 56.8891C88.2823 57.9168 89.2083 59.6471 89.2083 61.5C89.2083 63.3529 88.2823 65.0832 86.7406 66.1109L53.4906 88.2776C51.7901 89.4113 49.6037 89.517 47.8018 88.5526C45.9999 87.5883 44.875 85.7104 44.875 83.6667V39.3333C44.875 37.2896 45.9999 35.4117 47.8018 34.4474ZM55.9583 49.688V73.312L73.6763 61.5L55.9583 49.688Z" fill="white"/>
</svg>
